<svg xmlns="http://www.w3.org/2000/svg" viewBox="0 0 1888 833">
  <path id="c" d="
    M 20 367
    Q 20 355 32 355
    L 225 355
    C 270 355 286 322 300 270
    C 340 150 455 94 590 94
    L 990 94
    Q 1020 94 1000 118
    L 930 194
    Q 916 212 892 212
    L 575 212
    C 470 212 400 282 400 404
    C 400 526 470 596 575 596
    L 892 596
    Q 916 596 932 614
    L 1005 690
    Q 1025 714 990 714
    L 590 714
    C 445 714 340 655 300 535
    C 286 486 270 458 225 458
    L 32 458
    Q 20 458 20 446
    Z"/>

  <path id="o" fill-rule="evenodd" d="
    M 850 399
    C 920 400 980 320 1010 230
    A 338 338 0 0 1 1618 287
    C 1628 316 1628 355 1660 355
    L 1855 355
    Q 1870 355 1870 370
    L 1870 443
    Q 1870 458 1855 458
    L 1660 458
    C 1628 458 1628 490 1618 519
    A 338 338 0 0 1 1010 579
    C 980 489 920 414 850 399
    Z

    M 1100 406
    A 200 200 0 1 0 1500 406
    A 200 200 0 1 0 1100 406
    Z"/>

  <path id="insert-guide" fill="#cbd5e1" d="
    M 1010 230
    L 1205 230
    A 200 200 0 0 0 1205 579
    L 1010 579
    C 980 489 920 414 850 399
    C 920 400 980 320 1010 230
    Z"/>
</svg>
